<?xml version="1.0" encoding="utf-8"?>
<!-- Generator: Adobe Illustrator 22.0.1, SVG Export Plug-In . SVG Version: 6.00 Build 0)  -->
<svg version="1.1" id="Layer_1" xmlns="http://www.w3.org/2000/svg" xmlns:xlink="http://www.w3.org/1999/xlink" x="0px" y="0px"
	 viewBox="0 0 180 44" style="enable-background:new 0 0 180 44;" xml:space="preserve">
<style type="text/css">
	.st0{fill:#FFFFFF;}
	.st1{fill:#BDCC2A;}
</style>
<g id="Be_The_Match">
	<g>
		<g>
			<path class="st0" d="M52.8,18.3c0-0.6,0.4-1,1-1h3.3c1,0,1.9,0.3,2.4,0.8c0.4,0.4,0.6,0.9,0.6,1.6v0c0,1-0.6,1.6-1.2,2
				c1.1,0.4,1.7,1,1.7,2.3v0c0,1.7-1.4,2.5-3.4,2.5h-3.4c-0.6,0-1-0.4-1-1V18.3z M56.6,21c0.9,0,1.5-0.3,1.5-1v0
				c0-0.6-0.5-0.9-1.3-0.9h-2V21H56.6z M57.2,24.7c0.9,0,1.4-0.3,1.4-1v0c0-0.6-0.5-1-1.5-1h-2.3v2H57.2z"/>
			<path class="st0" d="M62.3,25.5v-7.2c0-0.6,0.4-1,1-1h5.1c0.5,0,0.9,0.4,0.9,0.9c0,0.5-0.4,0.9-0.9,0.9h-4.1v1.9h3.5
				c0.5,0,0.9,0.4,0.9,0.9c0,0.5-0.4,0.9-0.9,0.9h-3.5v1.9h4.2c0.5,0,0.9,0.4,0.9,0.9c0,0.5-0.4,0.9-0.9,0.9h-5.2
				C62.7,26.5,62.3,26,62.3,25.5z"/>
		</g>
		<g>
			<path class="st0" d="M100,18.2h-2.7c-0.3,0-0.5-0.2-0.5-0.5c0-0.3,0.2-0.5,0.5-0.5h6.4c0.3,0,0.5,0.2,0.5,0.5
				c0,0.3-0.2,0.5-0.5,0.5h-2.7V26c0,0.3-0.2,0.5-0.5,0.5c-0.3,0-0.5-0.2-0.5-0.5V18.2z"/>
			<path class="st0" d="M106.4,17.7c0-0.3,0.2-0.5,0.5-0.5c0.3,0,0.5,0.2,0.5,0.5v3.6h5.3v-3.6c0-0.3,0.2-0.5,0.5-0.5
				c0.3,0,0.5,0.2,0.5,0.5V26c0,0.3-0.2,0.5-0.5,0.5c-0.3,0-0.5-0.2-0.5-0.5v-3.7h-5.3V26c0,0.3-0.2,0.5-0.5,0.5
				c-0.3,0-0.5-0.2-0.5-0.5V17.7z"/>
			<path class="st0" d="M116.6,25.9v-8.1c0-0.3,0.2-0.5,0.5-0.5h5.7c0.3,0,0.5,0.2,0.5,0.5c0,0.3-0.2,0.5-0.5,0.5h-5.2v3.1h4.6
				c0.3,0,0.5,0.2,0.5,0.5c0,0.3-0.2,0.5-0.5,0.5h-4.6v3.2h5.2c0.3,0,0.5,0.2,0.5,0.5c0,0.3-0.2,0.5-0.5,0.5h-5.8
				C116.8,26.5,116.6,26.2,116.6,25.9z"/>
			<path class="st0" d="M129.8,17.8c0-0.3,0.2-0.5,0.5-0.5h0.1c0.2,0,0.4,0.1,0.5,0.3l3.3,4.9l3.3-4.9c0.1-0.2,0.3-0.3,0.5-0.3h0.1
				c0.3,0,0.5,0.2,0.5,0.5V26c0,0.3-0.2,0.5-0.5,0.5c-0.3,0-0.5-0.2-0.5-0.5v-6.8l-2.9,4.3c-0.1,0.2-0.2,0.3-0.4,0.3
				c-0.2,0-0.3-0.1-0.4-0.3l-2.9-4.3V26c0,0.3-0.2,0.5-0.5,0.5c-0.3,0-0.5-0.2-0.5-0.5V17.8z"/>
			<path class="st0" d="M140.9,25.8l3.7-8.1c0.1-0.3,0.3-0.5,0.7-0.5h0.1c0.3,0,0.5,0.2,0.6,0.5l3.7,8.1c0,0.1,0.1,0.2,0.1,0.3
				c0,0.3-0.2,0.5-0.5,0.5c-0.2,0-0.4-0.2-0.5-0.4l-1-2.1h-5l-1,2.1c-0.1,0.2-0.3,0.4-0.5,0.4c-0.3,0-0.5-0.2-0.5-0.5
				C140.8,26,140.8,25.9,140.9,25.8z M147.4,23.1l-2.1-4.7l-2.1,4.7H147.4z"/>
			<path class="st0" d="M153.3,18.2h-2.7c-0.3,0-0.5-0.2-0.5-0.5c0-0.3,0.2-0.5,0.5-0.5h6.4c0.3,0,0.5,0.2,0.5,0.5
				c0,0.3-0.2,0.5-0.5,0.5h-2.7V26c0,0.3-0.2,0.5-0.5,0.5c-0.3,0-0.5-0.2-0.5-0.5V18.2z"/>
			<path class="st0" d="M158.6,21.9L158.6,21.9c0-2.6,1.9-4.8,4.6-4.8c1.5,0,2.4,0.5,3.3,1.2c0.1,0.1,0.2,0.2,0.2,0.4
				c0,0.3-0.2,0.5-0.5,0.5c-0.1,0-0.3-0.1-0.3-0.1c-0.7-0.6-1.5-1-2.6-1c-2,0-3.6,1.7-3.6,3.8v0c0,2.1,1.5,3.8,3.6,3.8
				c1.1,0,1.9-0.4,2.7-1.1c0.1-0.1,0.2-0.1,0.3-0.1c0.3,0,0.5,0.2,0.5,0.5c0,0.2-0.1,0.3-0.2,0.4c-0.9,0.8-1.9,1.3-3.4,1.3
				C160.5,26.6,158.6,24.5,158.6,21.9z"/>
			<path class="st0" d="M168.9,17.7c0-0.3,0.2-0.5,0.5-0.5c0.3,0,0.5,0.2,0.5,0.5v3.6h5.3v-3.6c0-0.3,0.2-0.5,0.5-0.5
				c0.3,0,0.5,0.2,0.5,0.5V26c0,0.3-0.2,0.5-0.5,0.5c-0.3,0-0.5-0.2-0.5-0.5v-3.7H170V26c0,0.3-0.2,0.5-0.5,0.5
				c-0.3,0-0.5-0.2-0.5-0.5V17.7z"/>
		</g>
		<g>
			<path class="st1" d="M82.5,15.4c-0.6-2-2.4-3.5-4.7-3.5c-2.7,0-4.9,2.2-4.9,4.9c0,2.3,1.6,4.2,3.7,4.7
				C76.9,18.3,79.3,15.8,82.5,15.4z"/>
		</g>
		<g>
			<path class="st1" d="M89.8,21.4c2.1-0.6,3.6-2.4,3.6-4.7c0-2.7-2.2-4.9-4.9-4.9c-2.2,0-4.1,1.5-4.7,3.5
				C87,15.7,89.5,18.2,89.8,21.4z"/>
		</g>
		<g>
			<path class="st1" d="M76.6,22.8c-2.1,0.5-3.7,2.4-3.7,4.7c0,2.7,2.2,4.9,4.9,4.9c2.3,0,4.2-1.6,4.7-3.7
				C79.4,28.3,77,25.8,76.6,22.8z"/>
		</g>
		<g>
			<path class="st1" d="M89.8,22.8c-0.4,3.1-2.8,5.5-6,5.8c0.5,2.1,2.4,3.7,4.7,3.7c2.7,0,4.9-2.2,4.9-4.9
				C93.4,25.2,91.9,23.3,89.8,22.8z"/>
		</g>
		<g>
			<path class="st0" d="M82.6,16.7c0-0.5-0.1-0.9-0.2-1.3c-3.1,0.3-5.6,2.9-5.9,6c0.4,0.1,0.8,0.2,1.2,0.2
				C80.5,21.6,82.6,19.4,82.6,16.7z"/>
		</g>
		<g>
			<path class="st0" d="M88.5,21.6c0.4,0,0.9-0.1,1.3-0.2c-0.3-3.2-2.8-5.7-5.9-6c-0.1,0.4-0.2,0.9-0.2,1.3
				C83.7,19.4,85.9,21.6,88.5,21.6z"/>
		</g>
		<g>
			<path class="st0" d="M77.8,22.6c-0.4,0-0.8,0.1-1.2,0.2c0.3,3.1,2.8,5.5,5.9,5.9c0.1-0.4,0.1-0.8,0.1-1.1
				C82.6,24.8,80.5,22.6,77.8,22.6z"/>
		</g>
		<g>
			<path class="st0" d="M89.8,22.8c-0.4-0.1-0.8-0.2-1.3-0.2c-2.7,0-4.9,2.2-4.9,4.9c0,0.4,0.1,0.8,0.1,1.2
				C86.9,28.3,89.4,25.9,89.8,22.8z"/>
		</g>
	</g>
	<g>
		<path class="st0" d="M177.2,17.9L177.2,17.9c0-0.8,0.6-1.5,1.5-1.5c0.8,0,1.5,0.7,1.5,1.5v0c0,0.8-0.6,1.5-1.5,1.5
			C177.8,19.3,177.2,18.7,177.2,17.9z M180,17.8L180,17.8c0-0.7-0.6-1.3-1.3-1.3c-0.7,0-1.3,0.6-1.3,1.3v0c0,0.7,0.6,1.3,1.3,1.3
			C179.4,19.2,180,18.6,180,17.8z M178.1,17.2c0-0.1,0.1-0.1,0.1-0.1h0.5c0.3,0,0.6,0.2,0.6,0.5c0,0.2-0.1,0.4-0.3,0.5l0.3,0.3
			c0,0,0,0.1,0,0.1c0,0.1-0.1,0.1-0.1,0.1c-0.1,0-0.1,0-0.1-0.1l-0.4-0.5h-0.3v0.4c0,0.1-0.1,0.2-0.1,0.2c-0.1,0-0.1-0.1-0.1-0.2
			V17.2z M178.7,17.8c0.2,0,0.3-0.1,0.3-0.2c0-0.2-0.1-0.2-0.3-0.2h-0.4v0.5H178.7z"/>
	</g>
</g>
<g>
	<polygon class="st0" points="30,33.6 30.9,33.6 30.4,32.1 	"/>
	<path class="st0" d="M21,17.3c0.2-0.1,0.2-0.3,0.2-0.5c0-0.2-0.1-0.3-0.2-0.4c-0.2-0.1-0.4-0.1-0.6-0.1h-0.5v1.1h0.5
		C20.6,17.4,20.9,17.4,21,17.3z"/>
	<path class="st0" d="M16.8,23.5h-0.3v3.1h0.3c0.4,0,0.7-0.1,0.9-0.4c0.2-0.3,0.2-0.7,0.2-1.1c0-0.5-0.1-1-0.3-1.2
		C17.4,23.6,17.2,23.5,16.8,23.5z"/>
	<path class="st0" d="M21.9,24.1c-0.3,0-0.5,0.2-0.6,0.5c-0.1,0.2-0.1,0.6-0.1,0.9c0,0.5,0.1,1.4,0.8,1.4c0.3,0,0.5-0.2,0.6-0.5
		c0.1-0.3,0.1-0.6,0.1-0.9c0-0.3,0-0.7-0.2-0.9C22.4,24.2,22.2,24.1,21.9,24.1z"/>
	<polygon class="st0" points="15.7,16.7 15.2,18.2 16.1,18.2 	"/>
	<path class="st0" d="M25.8,17.3c0.2-0.1,0.2-0.3,0.2-0.5c0-0.2-0.1-0.3-0.2-0.4c-0.2-0.1-0.4-0.1-0.6-0.1h-0.5v1.1h0.5
		C25.5,17.4,25.7,17.4,25.8,17.3z"/>
	<path class="st0" d="M16.1,31.8c-0.3,0-0.5,0.2-0.6,0.5c-0.1,0.2-0.1,0.6-0.1,0.9c0,0.5,0.1,1.4,0.8,1.4c0.3,0,0.5-0.2,0.6-0.5
		c0.1-0.3,0.1-0.6,0.1-0.9c0-0.3,0-0.7-0.2-0.9C16.6,31.9,16.4,31.8,16.1,31.8z"/>
	<path class="st0" d="M30.1,19c0.3,0,0.5-0.2,0.6-0.5c0.1-0.3,0.1-0.6,0.1-0.9c0-0.3,0-0.7-0.2-0.9c-0.1-0.3-0.3-0.4-0.6-0.4
		c-0.3,0-0.5,0.2-0.6,0.5c-0.1,0.2-0.1,0.6-0.1,0.9C29.3,18.2,29.4,19,30.1,19z"/>
	<path class="st0" d="M22.9,11.3c0.3,0,0.5-0.2,0.6-0.5c0.1-0.3,0.1-0.6,0.1-0.9c0-0.3,0-0.7-0.2-0.9c-0.1-0.3-0.3-0.4-0.6-0.4
		c-0.3,0-0.5,0.2-0.6,0.5c-0.1,0.2-0.1,0.6-0.1,0.9C22.1,10.5,22.2,11.3,22.9,11.3z"/>
	<polygon class="st0" points="32.3,9 31.9,10.4 32.8,10.4 	"/>
	<path class="st0" d="M6.7,31.2H6.1v1.6h0.5c0.2,0,0.4,0,0.6-0.2c0.1-0.1,0.1-0.2,0.1-0.6c0-0.4-0.1-0.6-0.2-0.7
		C7.1,31.2,6.9,31.2,6.7,31.2z"/>
	<path class="st0" d="M11.9,31.9c-0.2-0.1-0.4-0.1-0.6-0.1h-0.5v1.1h0.5c0.2,0,0.4,0,0.6-0.1c0.2-0.1,0.2-0.3,0.2-0.5
		C12.1,32.1,12,31.9,11.9,31.9z"/>
	<polygon class="st0" points="11.2,10.4 12.1,10.4 11.7,9 	"/>
	<path class="st0" d="M26.3,31.9c-0.2-0.1-0.4-0.1-0.6-0.1h-0.5v1.1h0.5c0.2,0,0.4,0,0.6-0.1c0.2-0.1,0.2-0.3,0.2-0.5
		C26.5,32.1,26.4,31.9,26.3,31.9z"/>
	<path class="st0" d="M39.9,30.3c-0.4,0-0.8,0.4-0.8,0.8c0,0.4,0.4,0.8,0.8,0.8c0.4,0,0.8-0.4,0.8-0.8
		C40.7,30.7,40.3,30.3,39.9,30.3z M40.4,31.7h-0.3l-0.2-0.4h-0.2v0.4h-0.3v-1.1h0.5c0.1,0,0.4,0,0.4,0.3c0,0.2-0.2,0.3-0.2,0.3
		L40.4,31.7z"/>
	<path class="st0" d="M31.6,24.1c-0.3,0-0.5,0.2-0.6,0.5c-0.1,0.2-0.1,0.6-0.1,0.9c0,0.5,0.1,1.4,0.8,1.4c0.3,0,0.5-0.2,0.6-0.5
		c0.1-0.3,0.1-0.6,0.1-0.9c0-0.3,0-0.7-0.2-0.9C32.1,24.2,31.9,24.1,31.6,24.1z"/>
	<path class="st0" d="M39.9,30.8h-0.2v0.3h0.1c0.1,0,0.2,0,0.2-0.2C40.1,30.9,40,30.8,39.9,30.8z"/>
	<path class="st0" d="M36.9,24.1c-0.2-0.1-0.4-0.1-0.6-0.1h-0.5v1.1h0.5c0.2,0,0.4,0,0.6-0.1c0.2-0.1,0.2-0.3,0.2-0.5
		C37.1,24.4,37.1,24.2,36.9,24.1z"/>
	<path class="st0" d="M-0.1,0v44h44V0H-0.1z M31.9,7.9H33l1.3,4.2h-1.1L33,11.2h-1.3l-0.3,0.9h-0.9L31.9,7.9z M31.4,16.2
		c0.3,0.4,0.4,1,0.4,1.5c0,0.5-0.1,1.1-0.4,1.4c-0.3,0.5-0.8,0.7-1.4,0.7s-1-0.2-1.3-0.7c-0.3-0.4-0.4-1-0.4-1.5
		c0-1.1,0.6-2.1,1.8-2.1C30.7,15.5,31.1,15.7,31.4,16.2z M26.1,7.9h1.1l1.4,2.4h0V7.9h0.8v4.2h-0.8l-1.6-2.8h0v2.8h-0.8V7.9z
		 M22.9,7.8c0.6,0,1,0.2,1.3,0.6c0.3,0.4,0.5,1,0.5,1.5c0,0.5-0.1,1.1-0.4,1.4c-0.3,0.5-0.8,0.7-1.4,0.7c-0.6,0-1-0.2-1.4-0.7
		c-0.3-0.4-0.4-1-0.4-1.5C21.1,8.9,21.6,7.8,22.9,7.8z M18.6,7.9h1v4.2h-1V7.9z M14.2,7.9h3.1v0.8h-1v3.3h-1V8.7h-1.1V7.9z M5.2,7.3
		h1.1l1.6,3v-3h0.8v4.7H7.8L6,8.7h0v3.3H5.2V7.3z M7.9,33.3c-0.4,0.3-0.7,0.3-1.2,0.3H6.1v1.5h-1v-4.7h1.6c0.4,0,0.8,0,1.1,0.2
		c0.4,0.2,0.5,0.7,0.5,1.3C8.4,32.7,8.3,33.1,7.9,33.3z M8.5,15.8L8.5,15.8l0,3.9H7.6v-4.7h1.5l0.9,3l1-3h1.5v4.7h-1v-3.9h0
		l-1.3,3.9H9.7L8.5,15.8z M12.1,35.2l-0.6-1.6h-0.7v1.6h-1V31h1.8c0.4,0,0.7,0,1.1,0.2c0.3,0.2,0.5,0.6,0.5,1c0,0.5-0.3,0.9-0.7,1.1
		l0.8,1.8H12.1z M12.6,12.1l-0.3-0.9H11l-0.3,0.9H9.9l1.3-4.2h1.1l1.3,4.2H12.6z M15.2,15.6h1.1l1.3,4.2h-1.1l-0.3-0.9H15l-0.3,0.9
		h-0.9L15.2,15.6z M17.5,34.6c-0.3,0.5-0.8,0.7-1.4,0.7c-0.6,0-1-0.2-1.4-0.7c-0.3-0.4-0.4-1-0.4-1.5c0-1.1,0.6-2.1,1.8-2.1
		c0.6,0,1,0.2,1.3,0.6c0.3,0.4,0.4,1,0.4,1.5C17.9,33.6,17.8,34.2,17.5,34.6z M18.4,26.9c-0.4,0.5-0.9,0.6-1.5,0.6h-1.4v-4.7h1.2
		c0.6,0,1.1,0,1.6,0.5c0.4,0.4,0.6,1.1,0.6,1.9C18.9,25.9,18.8,26.5,18.4,26.9z M18.9,15.6h1.8c0.4,0,0.7,0,1.1,0.2
		c0.3,0.2,0.5,0.6,0.5,1c0,0.5-0.3,0.9-0.7,1.1l0.8,1.8h-1.1l-0.6-1.6h-0.7v1.6h-1V15.6z M21,34.5c0.4,0,0.7-0.3,0.7-0.7h-0.8V33
		h1.7v2.2h-0.4L22,34.7c-0.3,0.4-0.6,0.5-1.1,0.5c-1.2,0-1.7-1-1.7-2.1c0-1.1,0.6-2.2,1.8-2.2c0.9,0,1.5,0.5,1.6,1.4l-0.9,0.1
		c0-0.4-0.3-0.8-0.7-0.8c-0.7,0-0.8,0.9-0.8,1.4C20.1,33.7,20.3,34.5,21,34.5z M23.3,26.8c-0.3,0.5-0.8,0.7-1.4,0.7
		c-0.6,0-1-0.2-1.3-0.7c-0.3-0.4-0.4-1-0.4-1.5c0-1.1,0.6-2.1,1.8-2.1c0.6,0,1,0.2,1.3,0.6c0.3,0.4,0.4,1,0.4,1.5
		C23.7,25.9,23.6,26.4,23.3,26.8z M23.7,15.6h1.8c0.4,0,0.7,0,1.1,0.2c0.3,0.2,0.5,0.6,0.5,1c0,0.5-0.3,0.9-0.7,1.1l0.8,1.8h-1.1
		l-0.6-1.6h-0.7v1.6h-1V15.6z M26.5,35.2l-0.6-1.6h-0.7v1.6h-1V31h1.8c0.4,0,0.7,0,1.1,0.2c0.3,0.2,0.5,0.6,0.5,1
		c0,0.5-0.3,0.9-0.7,1.1l0.8,1.8H26.5z M28.4,27.5h-0.8l-1.6-2.8h0v2.8h-0.8v-4.2h1.1l1.4,2.4h0v-2.4h0.8V27.5z M31.3,35.2l-0.3-0.9
		h-1.3l-0.3,0.9h-0.9L30,31h1.1l1.3,4.2H31.3z M33,26.8c-0.3,0.5-0.8,0.7-1.4,0.7c-0.6,0-1-0.2-1.4-0.7c-0.3-0.4-0.4-1-0.4-1.5
		c0-1.1,0.6-2.1,1.8-2.1c0.6,0,1,0.2,1.3,0.6c0.3,0.4,0.4,1,0.4,1.5C33.4,25.9,33.2,26.4,33,26.8z M38.2,35.2h-1v-3.4h0l-1,3.4h-0.7
		l-1-3.4h0v3.4h-0.8V31h1.5l0.7,2.5l0.8-2.5h1.5V35.2z M37.1,27.5l-0.6-1.6h-0.7v1.6h-1v-4.2h1.8c0.4,0,0.7,0,1.1,0.2
		c0.3,0.2,0.5,0.6,0.5,1c0,0.5-0.3,0.9-0.7,1.1l0.8,1.8H37.1z M37.2,19.8h-1L35.5,17h0l-0.7,2.8h-0.9l-1.1-4.2h1l0.6,2.8h0l0.7-2.8
		H36l0.7,2.8h0l0-0.2l0.6-2.6h0.8L37.2,19.8z M38.2,12.1h-2.7V7.9h1v3.3h1.7V12.1z M39.9,32.2c-0.6,0-1.1-0.5-1.1-1.1
		c0-0.6,0.5-1.1,1.1-1.1c0.6,0,1.1,0.5,1.1,1.1C40.9,31.8,40.5,32.2,39.9,32.2z"/>
</g>
</svg>
